<?xml version="1.0" standalone="no"?>
<!DOCTYPE svg PUBLIC "-//W3C//DTD SVG 20010904//EN"
 "http://www.w3.org/TR/2001/REC-SVG-20010904/DTD/svg10.dtd">
<svg version="1.0" xmlns="http://www.w3.org/2000/svg"
 width="22.000000pt" height="22.000000pt" viewBox="0 0 22.000000 22.000000"
 preserveAspectRatio="xMidYMid meet">

<g transform="translate(0.000000,22.000000) scale(0.100000,-0.100000)"
fill="#000000" stroke="none">
<path d="M0 110 l0 -110 110 0 110 0 0 110 0 110 -110 0 -110 0 0 -110z m57
64 c14 -14 14 -17 1 -30 -11 -11 -15 -12 -15 -2 0 7 -4 21 -8 31 -9 21 1 22
22 1z m41 5 c-2 -6 -8 -10 -13 -10 -5 0 -11 4 -13 10 -2 6 4 11 13 11 9 0 15
-5 13 -11z m47 -29 c-10 -11 -21 -17 -26 -15 -4 3 2 15 14 28 26 26 37 14 12
-13z m35 -19 c0 -11 -12 -23 -31 -31 -21 -9 -27 -16 -20 -23 16 -16 13 -27 -4
-21 -8 4 -15 1 -15 -5 0 -6 -10 -11 -22 -11 -23 1 -23 1 -3 16 20 16 20 16 -2
9 -14 -4 -23 -2 -23 4 0 6 4 11 9 11 5 0 7 8 4 19 -4 15 3 19 43 24 27 3 50
10 52 16 6 17 12 13 12 -8z m17 -43 c-3 -8 -6 -5 -6 6 -1 11 2 17 5 13 3 -3 4
-12 1 -19z m-21 -25 c22 -30 16 -52 -6 -24 -20 23 -26 41 -14 41 4 0 13 -8 20
-17z m-16 -33 c0 -5 -4 -10 -10 -10 -5 0 -10 5 -10 10 0 6 5 10 10 10 6 0 10
-4 10 -10z"/>
</g>
</svg>
