<?xml version="1.0" standalone="no"?>
<!DOCTYPE svg PUBLIC "-//W3C//DTD SVG 20010904//EN"
 "http://www.w3.org/TR/2001/REC-SVG-20010904/DTD/svg10.dtd">
<svg version="1.0" xmlns="http://www.w3.org/2000/svg"
 width="22.000000pt" height="22.000000pt" viewBox="0 0 22.000000 22.000000"
 preserveAspectRatio="xMidYMid meet">

<g transform="translate(0.000000,22.000000) scale(0.100000,-0.100000)"
fill="#000000" stroke="none">
<path d="M0 110 l0 -110 110 0 110 0 0 110 0 110 -110 0 -110 0 0 -110z m90
70 c0 -5 -4 -10 -10 -10 -5 0 -10 5 -10 10 0 6 5 10 10 10 6 0 10 -4 10 -10z
m93 -4 c3 -9 -4 -21 -19 -30 -13 -9 -24 -23 -24 -31 0 -7 -11 -22 -25 -33 -14
-11 -25 -27 -25 -36 0 -11 -9 -16 -30 -16 -35 0 -40 15 -8 24 21 7 21 8 5 14
-17 7 -16 9 7 22 14 7 26 17 26 21 0 5 7 6 16 2 14 -5 15 -3 5 14 -9 18 -7 22
15 27 14 4 27 13 30 21 8 19 20 19 27 1z m-106 -32 c-3 -3 -12 -4 -19 -1 -8 3
-5 6 6 6 11 1 17 -2 13 -5z m80 -110 c-3 -3 -12 -4 -19 -1 -8 3 -5 6 6 6 11 1
17 -2 13 -5z"/>
</g>
</svg>
