<?xml version="1.0" standalone="no"?>
<!DOCTYPE svg PUBLIC "-//W3C//DTD SVG 20010904//EN"
 "http://www.w3.org/TR/2001/REC-SVG-20010904/DTD/svg10.dtd">
<svg version="1.0" xmlns="http://www.w3.org/2000/svg"
 width="22.000000pt" height="22.000000pt" viewBox="0 0 22.000000 22.000000"
 preserveAspectRatio="xMidYMid meet">

<g transform="translate(0.000000,22.000000) scale(0.100000,-0.100000)"
fill="#000000" stroke="none">
<path d="M0 110 l0 -110 110 0 110 0 0 110 0 110 -110 0 -110 0 0 -110z m160
68 c0 7 7 12 15 12 21 0 19 -14 -6 -36 -19 -17 -19 -19 -3 -31 16 -12 15 -13
-9 -13 -15 0 -30 -7 -33 -15 -11 -28 -26 -16 -19 15 4 20 3 30 -5 30 -10 0 -9
4 0 15 18 22 3 32 -17 12 -9 -9 -17 -32 -17 -51 0 -30 -2 -32 -18 -23 -10 7
-13 14 -7 18 6 4 8 21 3 44 -4 21 -3 36 2 33 5 -3 27 -3 49 1 30 6 43 4 53 -8
7 -9 12 -10 12 -3z m-100 -108 c8 -5 11 -10 5 -10 -5 0 -17 5 -25 10 -8 5 -10
10 -5 10 6 0 17 -5 25 -10z m-6 -35 c-8 -19 -24 -19 -24 0 0 8 7 15 15 15 9 0
12 -6 9 -15z m106 -6 c0 -5 -4 -9 -10 -9 -5 0 -10 7 -10 16 0 8 5 12 10 9 6
-3 10 -10 10 -16z m30 0 c0 -6 -4 -7 -10 -4 -5 3 -10 11 -10 16 0 6 5 7 10 4
6 -3 10 -11 10 -16z"/>
</g>
</svg>
