<?xml version="1.0" standalone="no"?>
<!DOCTYPE svg PUBLIC "-//W3C//DTD SVG 20010904//EN"
 "http://www.w3.org/TR/2001/REC-SVG-20010904/DTD/svg10.dtd">
<svg version="1.0" xmlns="http://www.w3.org/2000/svg"
 width="150px" height="150px" viewBox="0 0 150.000000 150.000000"
 preserveAspectRatio="xMidYMid meet">

<g transform="translate(0.000000,150.000000) scale(0.100000,-0.100000)"
fill="#000000" stroke="none">
<path d="M520 1311 c0 -9 61 -51 74 -51 17 0 2 23 -26 40 -36 22 -48 25 -48
11z"/>
<path d="M610 1257 c0 -31 43 -53 60 -32 17 21 -5 55 -35 55 -20 0 -25 -5 -25
-23z"/>
<path d="M752 1232 c-11 -11 -38 -21 -61 -25 -45 -6 -91 -31 -91 -49 0 -9 3
-9 12 0 7 7 41 12 83 12 63 0 79 -4 160 -45 75 -37 100 -45 147 -45 31 0 68
-4 82 -10 27 -10 55 -56 57 -92 1 -23 1 -23 9 2 4 14 8 44 9 67 1 61 -25 77
-121 71 -60 -3 -75 -1 -90 14 -20 20 -38 24 -38 8 0 -5 6 -10 14 -10 8 0 18
-5 22 -11 11 -19 -35 1 -99 42 -33 22 -69 39 -79 39 -17 0 -18 1 -2 25 19 29
12 33 -14 7z"/>
<path d="M625 1150 c-3 -5 1 -10 9 -10 9 0 16 5 16 10 0 6 -4 10 -9 10 -6 0
-13 -4 -16 -10z"/>
<path d="M725 1152 c6 -5 26 -13 45 -17 25 -5 32 -4 25 4 -6 6 -26 14 -45 17
-24 5 -32 3 -25 -4z"/>
<path d="M581 1082 c4 -31 8 -77 8 -102 0 -36 -2 -42 -10 -27 -6 10 -9 27 -6
37 2 10 -1 42 -8 71 l-12 54 -12 -51 c-13 -56 -2 -104 32 -132 14 -12 17 -10
22 15 10 45 13 50 14 23 1 -25 17 -50 32 -50 3 0 4 11 2 24 -3 13 0 27 6 30 7
5 11 -5 11 -27 0 -30 3 -34 20 -30 11 3 20 14 20 24 0 10 5 21 10 24 6 4 2 18
-11 36 -17 24 -25 28 -47 22 -15 -3 -31 -11 -35 -17 -5 -6 -6 0 -3 15 6 30 -9
93 -27 107 -10 9 -12 0 -6 -46z"/>
<path d="M677 1133 c-4 -3 -7 -11 -7 -17 0 -6 5 -5 12 2 6 6 9 14 7 17 -3 3
-9 2 -12 -2z"/>
<path d="M710 1122 c0 -4 9 -13 20 -20 22 -13 27 -3 8 16 -14 14 -28 16 -28 4z"/>
<path d="M822 1107 c8 -23 547 -411 628 -452 50 -25 44 -20 -267 219 -254 195
-373 272 -361 233z"/>
<path d="M620 1075 c0 -8 9 -15 20 -15 24 0 27 15 4 24 -22 9 -24 8 -24 -9z"/>
<path d="M775 1080 c-4 -6 5 -10 20 -10 15 0 24 4 20 10 -3 6 -12 10 -20 10
-8 0 -17 -4 -20 -10z"/>
<path d="M685 1053 c-11 -3 -24 -9 -29 -13 -5 -5 0 -6 12 -3 13 3 31 -3 48
-16 27 -21 54 -28 54 -13 0 5 -15 16 -32 25 -26 12 -29 16 -13 16 25 1 65 -26
65 -43 0 -8 7 -19 15 -26 21 -17 55 -97 55 -128 0 -14 3 -23 6 -19 9 9 34 -19
34 -37 0 -9 4 -16 10 -16 5 0 9 -3 9 -7 -3 -18 2 -33 10 -33 5 0 7 10 4 23
l-5 22 21 -24 c12 -13 21 -31 21 -40 0 -23 23 -71 34 -71 4 0 5 8 1 18 -7 18
-21 80 -31 142 -6 33 -6 34 9 15 9 -11 17 -28 17 -37 0 -22 19 -33 26 -15 7
20 -19 80 -62 139 -42 56 -41 72 1 28 16 -17 34 -30 40 -30 24 0 98 -89 105
-127 l8 -38 1 47 c1 36 -5 53 -24 76 -33 39 -180 145 -230 166 -42 18 -145 29
-180 19z"/>
<path d="M1175 1024 c4 -10 11 -37 14 -59 6 -38 7 -39 19 -18 18 33 14 56 -15
77 -26 19 -26 19 -18 0z"/>
<path d="M727 960 c-9 -9 -17 -21 -17 -25 0 -5 -12 -19 -27 -32 l-28 -22 32
11 c19 7 33 20 35 32 2 11 10 21 18 24 12 4 13 2 3 -9 -7 -7 -13 -21 -13 -31
0 -10 -10 -20 -25 -24 -14 -3 -25 -13 -25 -21 0 -11 7 -13 33 -8 17 4 32 8 32
9 0 0 6 16 12 34 9 25 9 38 0 55 -11 22 -13 22 -30 7z"/>
<path d="M770 895 c-6 -14 -10 -30 -10 -35 0 -5 -10 -10 -22 -12 -19 -2 -23
-9 -21 -36 2 -43 5 -45 37 -31 27 13 38 46 11 35 -46 -19 -50 -19 -30 -3 11 9
26 17 33 17 6 0 12 9 12 21 0 11 5 29 10 39 7 13 7 21 0 25 -6 3 -15 -6 -20
-20z"/>
<path d="M797 861 c-4 -17 -3 -21 5 -13 5 5 8 16 6 23 -3 8 -7 3 -11 -10z"/>
<path d="M745 760 c-14 -15 -15 -20 -4 -20 15 1 49 23 49 34 0 13 -28 5 -45
-14z"/>
<path d="M768 743 c-21 -13 -27 -25 -26 -49 1 -17 -2 -36 -6 -42 -4 -7 -2 -12
4 -12 6 0 8 -4 5 -10 -11 -18 5 -11 31 14 l26 23 -29 22 c-30 24 -31 23 24 58
28 19 1 15 -29 -4z"/>
<path d="M784 725 c-19 -15 -19 -15 5 -36 20 -16 26 -17 32 -6 9 15 1 57 -10
57 -4 0 -16 -7 -27 -15z"/>
<path d="M625 703 c-26 -7 -33 -19 -27 -49 7 -40 48 -32 67 12 8 20 15 38 15
40 0 5 -29 3 -55 -3z"/>
<path d="M682 675 c-14 -31 -15 -35 -4 -35 8 0 32 43 32 55 0 15 -19 1 -28
-20z"/>
<path d="M544 676 c-15 -12 -17 -17 -6 -27 6 -7 12 -18 12 -23 0 -6 -5 -4 -10
4 -9 13 -12 13 -25 -3 -7 -11 -11 -25 -9 -32 4 -10 14 -8 39 8 27 18 34 29 35
55 0 35 -7 39 -36 18z"/>
<path d="M922 609 c-26 -17 -30 -24 -21 -35 10 -12 14 -12 29 1 9 8 35 15 57
15 24 0 43 5 46 13 3 7 6 5 6 -5 1 -10 6 -18 12 -18 14 0 7 42 -7 47 -7 2 -19
-3 -27 -12 -18 -17 -37 -16 -52 2 -8 10 -17 8 -43 -8z"/>
<path d="M645 600 c-8 -13 5 -13 25 0 13 8 13 10 -2 10 -9 0 -20 -4 -23 -10z"/>
<path d="M745 599 c-4 -6 -5 -13 -2 -16 7 -7 27 6 27 18 0 12 -17 12 -25 -2z"/>
<path d="M260 597 c0 -4 11 -25 25 -47 33 -52 32 -56 -8 -31 -19 11 -63 27
-100 36 -36 8 -74 18 -84 21 -10 3 -7 -1 7 -9 14 -8 44 -18 67 -22 38 -6 141
-61 131 -70 -2 -2 -28 8 -57 22 -69 35 -151 42 -171 17 -14 -17 -14 -18 2 -6
19 15 38 8 38 -12 0 -8 17 -16 40 -20 23 -3 38 -11 35 -16 -3 -5 -18 -5 -36 2
-16 6 -33 8 -36 4 -4 -3 2 -6 11 -6 12 0 16 -5 12 -15 -4 -11 2 -15 21 -15
l26 0 -23 -25 c-12 -13 -46 -32 -74 -42 -33 -11 -44 -18 -32 -21 10 -2 46 5
80 16 87 28 116 34 116 22 0 -5 20 -10 45 -10 27 0 45 -5 45 -11 0 -8 -22 -10
-72 -6 -40 4 -67 4 -60 1 17 -8 15 -22 -5 -28 -10 -2 8 -4 40 -3 50 2 55 0 40
-11 -16 -12 -12 -13 27 -7 25 3 56 2 69 -3 l25 -9 -26 -17 c-15 -10 -32 -16
-40 -15 -39 5 -78 -3 -102 -22 -34 -26 -27 -37 8 -13 35 22 122 14 197 -20 52
-24 61 -25 236 -23 l182 3 31 29 c41 39 40 65 -1 31 -32 -27 -46 -30 -98 -20
-39 8 -40 19 -1 30 40 12 160 114 160 136 0 30 -19 21 -68 -32 -78 -83 -187
-115 -305 -90 -69 14 -78 34 -11 24 52 -7 59 -8 92 -6 24 2 31 22 8 22 -26 0
-27 31 0 53 l26 22 -45 -3 c-55 -5 -159 21 -201 50 -17 11 -66 55 -108 97 -43
41 -78 72 -78 68z"/>
<path d="M553 585 c-8 -23 0 -25 21 -4 18 17 18 19 2 19 -9 0 -19 -7 -23 -15z"/>
<path d="M939 555 c-14 -7 -31 -26 -37 -41 -11 -24 -11 -26 5 -19 57 24 92 34
121 35 17 0 32 4 32 8 0 32 -74 43 -121 17z"/>
<path d="M390 550 c0 -5 14 -11 30 -14 17 -3 44 -9 60 -12 17 -3 53 -24 81
-46 28 -22 53 -38 55 -35 9 9 -33 47 -81 71 -52 27 -145 49 -145 36z"/>
<path d="M747 508 c6 -61 7 -62 28 -54 10 3 13 11 8 18 -10 17 -10 38 -1 66 6
19 4 22 -16 22 -23 0 -24 -2 -19 -52z"/>
<path d="M610 509 c35 -16 71 -36 80 -42 8 -6 6 -1 -5 12 -22 27 -89 60 -120
61 -11 0 9 -14 45 -31z"/>
<path d="M425 490 c3 -5 17 -10 30 -10 12 0 46 -15 74 -34 50 -34 69 -35 33
-3 -38 35 -154 74 -137 47z"/>
<path d="M990 430 c0 -11 5 -20 10 -20 6 0 10 9 10 20 0 11 -4 20 -10 20 -5 0
-10 -9 -10 -20z"/>
<path d="M750 415 c0 -29 28 -90 37 -81 3 3 1 11 -4 18 -6 7 -13 25 -17 41 -6
23 -3 27 16 27 19 0 20 2 8 10 -26 17 -40 11 -40 -15z"/>
<path d="M1040 399 c0 -11 4 -18 10 -14 5 3 7 12 3 20 -7 21 -13 19 -13 -6z"/>
<path d="M780 392 c0 -11 6 -25 14 -31 12 -10 13 -8 9 10 -4 15 -3 20 5 15 7
-4 12 -5 12 -2 0 3 -9 10 -20 16 -17 9 -20 8 -20 -8z"/>
<path d="M731 384 c0 -11 3 -14 6 -6 3 7 2 16 -1 19 -3 4 -6 -2 -5 -13z"/>
<path d="M1140 385 c0 -8 7 -15 15 -15 9 0 12 6 9 15 -4 8 -10 15 -15 15 -5 0
-9 -7 -9 -15z"/>
<path d="M1184 295 c11 -8 27 -15 35 -15 9 0 3 7 -13 15 -36 19 -47 19 -22 0z"/>
<path d="M1208 253 c6 -2 18 -2 25 0 6 3 1 5 -13 5 -14 0 -19 -2 -12 -5z"/>
</g>
</svg>
