<?xml version="1.0" standalone="no"?>
<!DOCTYPE svg PUBLIC "-//W3C//DTD SVG 20010904//EN"
 "http://www.w3.org/TR/2001/REC-SVG-20010904/DTD/svg10.dtd">
<svg version="1.0" xmlns="http://www.w3.org/2000/svg"
 width="22.000000pt" height="22.000000pt" viewBox="0 0 22.000000 22.000000"
 preserveAspectRatio="xMidYMid meet">

<g transform="translate(0.000000,22.000000) scale(0.100000,-0.100000)"
fill="#000000" stroke="none">
<path d="M0 110 l0 -110 110 0 110 0 0 110 0 110 -110 0 -110 0 0 -110z m68
37 c13 -23 16 -33 7 -22 -8 11 -22 28 -30 38 -17 19 -19 27 -7 27 4 0 17 -19
30 -43z m30 11 l12 -33 -20 25 c-21 27 -25 40 -12 40 4 0 13 -15 20 -32z m49
0 c-3 -7 -5 -2 -5 12 0 14 2 19 5 13 2 -7 2 -19 0 -25z m50 -25 l1 -58 -17 35
c-18 37 -16 80 3 80 8 0 12 -21 13 -57z m-52 -9 c8 -8 17 -31 21 -52 4 -20 12
-41 18 -45 7 -6 4 -7 -7 -3 -10 3 -24 6 -31 6 -7 0 -28 12 -47 26 -19 15 -25
23 -14 19 31 -11 65 -16 65 -10 0 3 -14 11 -32 17 -31 11 -31 11 -11 28 15 12
18 21 12 31 -5 8 -8 21 -8 29 0 8 4 5 10 -8 5 -13 15 -30 24 -38z m-98 -9 c0
-8 -4 -15 -8 -15 -11 0 -20 16 -12 24 11 11 20 7 20 -9z m13 -71 c0 -14 -6
-24 -14 -24 -10 0 -14 10 -14 29 1 36 28 31 28 -5z"/>
</g>
</svg>
