<?xml version="1.0" standalone="no"?>
<!DOCTYPE svg PUBLIC "-//W3C//DTD SVG 20010904//EN"
 "http://www.w3.org/TR/2001/REC-SVG-20010904/DTD/svg10.dtd">
<svg version="1.0" xmlns="http://www.w3.org/2000/svg"
 width="22.000000pt" height="22.000000pt" viewBox="0 0 22.000000 22.000000"
 preserveAspectRatio="xMidYMid meet">

<g transform="translate(0.000000,22.000000) scale(0.100000,-0.100000)"
fill="#000000" stroke="none">
<path d="M0 110 l0 -110 110 0 110 0 0 110 0 110 -110 0 -110 0 0 -110z m64
64 c10 -26 7 -34 -14 -34 -15 0 -20 7 -20 25 0 28 24 34 34 9z m69 0 c-3 -9
-9 -12 -12 -7 -3 4 -10 11 -15 16 -5 4 0 7 12 7 15 0 20 -4 15 -16z m65 -14
c-1 -19 -6 -30 -16 -30 -9 0 -12 6 -8 16 3 9 6 22 6 30 0 8 4 14 9 14 5 0 9
-13 9 -30z m-60 -18 c9 9 12 6 12 -14 0 -15 6 -29 13 -31 6 -3 1 -6 -12 -6
-18 -1 -22 -5 -18 -22 4 -16 3 -18 -8 -9 -7 6 -20 7 -30 4 -15 -6 -16 -4 -6
14 15 27 15 27 -13 30 -13 1 -27 -5 -30 -13 -3 -8 -1 -15 5 -15 11 0 3 -38
-11 -53 -12 -13 -10 66 2 81 6 6 21 12 35 12 21 0 23 3 17 23 -6 21 -6 21 13
5 15 -14 22 -15 31 -6z m59 -28 c-3 -3 -12 -4 -19 -1 -8 3 -5 6 6 6 11 1 17
-2 13 -5z m-10 -50 c-3 -4 -2 -15 4 -26 9 -17 8 -19 -12 -16 -30 4 -35 48 -6
48 11 0 17 -3 14 -6z m-72 -34 c3 -6 -4 -10 -17 -10 -18 0 -20 2 -8 10 19 12
18 12 25 0z"/>
</g>
</svg>
