<?xml version="1.0" standalone="no"?>
<!DOCTYPE svg PUBLIC "-//W3C//DTD SVG 20010904//EN"
 "http://www.w3.org/TR/2001/REC-SVG-20010904/DTD/svg10.dtd">
<svg version="1.0" xmlns="http://www.w3.org/2000/svg"
 width="22.000000pt" height="22.000000pt" viewBox="0 0 22.000000 22.000000"
 preserveAspectRatio="xMidYMid meet">

<g transform="translate(0.000000,22.000000) scale(0.100000,-0.100000)"
fill="#000000" stroke="none">
<path d="M0 110 l0 -110 110 0 110 0 0 110 0 110 -110 0 -110 0 0 -110z m100
69 c0 -5 -7 -9 -15 -9 -8 0 -15 -4 -15 -10 0 -5 5 -10 10 -10 6 0 10 -12 10
-27 0 -21 -3 -24 -9 -13 -6 8 -7 18 -4 24 3 5 2 6 -3 3 -14 -8 -30 4 -38 29
-5 17 -2 20 29 21 19 1 35 -3 35 -8z m30 -9 c0 -11 -4 -20 -10 -20 -5 0 -10 9
-10 20 0 11 5 20 10 20 6 0 10 -9 10 -20z m66 -65 c-1 -61 -5 -85 -13 -85 -7
0 -13 6 -14 13 0 10 -2 10 -6 0 -7 -18 -23 -16 -23 2 0 8 6 15 13 16 9 0 9 2
0 5 -14 6 0 53 20 67 8 6 6 7 -5 3 -10 -3 -18 -1 -18 3 0 5 -3 17 -7 27 -5 13
-3 16 10 11 11 -4 17 -1 17 8 0 8 6 15 13 15 11 0 14 -20 13 -85z m-144 -6
c-4 -39 -19 -42 -20 -4 -1 25 2 35 11 32 6 -2 11 -15 9 -28z m37 -64 c0 -19 0
-19 -13 -2 -12 15 -14 16 -20 2 -3 -8 -10 -15 -16 -15 -17 0 -11 23 13 46 19
18 23 19 29 5 4 -9 7 -25 7 -36z"/>
<path d="M166 75 c4 -8 8 -15 10 -15 2 0 4 7 4 15 0 8 -4 15 -10 15 -5 0 -7
-7 -4 -15z"/>
</g>
</svg>
