<?xml version="1.0" standalone="no"?>
<!DOCTYPE svg PUBLIC "-//W3C//DTD SVG 20010904//EN"
 "http://www.w3.org/TR/2001/REC-SVG-20010904/DTD/svg10.dtd">
<svg version="1.0" xmlns="http://www.w3.org/2000/svg"
 width="22.000000pt" height="22.000000pt" viewBox="0 0 22.000000 22.000000"
 preserveAspectRatio="xMidYMid meet">

<g transform="translate(0.000000,22.000000) scale(0.100000,-0.100000)"
fill="#000000" stroke="none">
<path d="M0 110 l0 -110 110 0 110 0 0 110 0 110 -110 0 -110 0 0 -110z m79
64 c2 -1 -6 -16 -18 -32 l-20 -29 23 -22 c23 -22 28 -62 9 -68 -19 -7 -43 58
-43 114 0 52 1 54 23 47 12 -3 24 -8 26 -10z m61 12 c0 -3 -4 -8 -10 -11 -5
-3 -10 -1 -10 4 0 6 5 11 10 11 6 0 10 -2 10 -4z m60 -6 c0 -5 -7 -10 -15 -10
-8 0 -15 5 -15 10 0 6 7 10 15 10 8 0 15 -4 15 -10z m-15 -31 c4 -6 -2 -19
-14 -30 -12 -11 -21 -24 -21 -28 0 -11 -29 -23 -40 -16 -15 10 1 35 22 35 13
0 18 5 15 14 -10 24 25 47 38 25z m-69 -26 c-10 -10 -19 5 -10 18 6 11 8 11
12 0 2 -7 1 -15 -2 -18z m82 -91 c2 -7 -3 -12 -12 -12 -9 0 -16 7 -16 16 0 17
22 14 28 -4z m-38 -2 c0 -5 -5 -10 -11 -10 -5 0 -7 5 -4 10 3 6 8 10 11 10 2
0 4 -4 4 -10z"/>
</g>
</svg>
